{"title":"Sarfarosh 1999   Hindi BluRay 1080p HEVC x265 AC-3 5.1 Team Tell","uid":11793661,"size":4501111775,"categoryP":"video","categoryS":"movies","magnet":"?xt=urn:btih:dbe2b49a151f14713e1e5042c1a38bb9211f474b&amp;dn=Sarfarosh+1999+++Hindi+BluRay+1080p+HEVC+x265+AC-3+5.1+Team+Tell&amp;tr=udp%3A%2F%2Ftracker.openbittorrent.com%3A80&amp;tr=udp%3A%2F%2Fopen.demonii.com%3A1337&amp;tr=udp%3A%2F%2Ftracker.coppersurfer.tk%3A6969&amp;tr=udp%3A%2F%2Fexodus.desync.com%3A6969","seeders":2,"leechers":5,"uploader":"rsy007","files":3,"time":1428049541,"description":"[img]http://i.imgur.com/bb2KXKf.png[/Img]\n\n[color=red][b]Sarfarosh 1999   Hindi BluRay 1080p HEVC x265 AC-3 5.1 Team Telly[/b][/color]\n\n[img]http://i.imgur.com/Mio0TeP.jpg[/Img]\n\n\n[color=red][b]Storyline:[/b][/color]\n\n[color=purple][b]After his brother is killed and father severly injured by terrorists, a young med student quits his studies to join the Indian Police Service to wipe out the terrorists..[/b][/color]\n\n[color=green][b]Genres:Action, Adventure, Drama  \nCountry: India\nLanguage: Hindi\nRelease Date: 30 April 1999 (India)\n[/b][/color]\n\n[color=red][b]Media Information:[/b][/color]\n\n\n[color=blue]Complete name               :Sarfarosh 1999   Hindi BluRay 1080p HEVC x265 AC-3 5.1 Team Telly\n\nFormat                      : Matroska\nFormat version              : Version 4 / Version 2\nFile size                   : 4.16 GiB\nDuration                    : 2h 43mn\nOverall bit rate            : 3 642 Kbps\nMovie name                  : RSY-HEVC ENCODER\nEncoded date                : UTC 2015-03-31 09:35:49\n\n\nVideo\nID                          : 1\nFormat                      : HEVC\nFormat/Info                 : High Efficiency Video Coding\nCodec ID                    : V_MPEGH/ISO/HEVC\nDuration                    : 2h 43mn\nBit rate                    : 2 929 Kbps\nWidth                       : 1 920 pixels\nHeight                      : 816 pixels\nDisplay aspect ratio        : 2.35:1\nFrame rate mode             : Constant\nFrame rate                  : 24.000 fps\nBits/(Pixel*Frame)          : 0.078\nStream size                 : 3.35 GiB (80%)\nTitle                       : RSY-HEVC ENCODER\nLanguage                    : English\nDefault                     : Yes\nForced                      : No\n\nAudio\nID                          : 2\nFormat                      : AC-3\nFormat/Info                 : Audio Coding 3\nMode extension              : CM (complete main)\nFormat settings, Endianness : Big\nCodec ID                    : A_AC3\nDuration                    : 2h 43mn\nBit rate mode               : Constant\nBit rate                    : 640 Kbps\nChannel(s)                  : 6 channels\nChannel positions           : Front: L C R, Side: L R, LFE\nSampling rate               : 48.0 KHz\nBit depth                   : 16 bits\nCompression mode            : Lossy\nStream size                 : 749 MiB (18%)\nTitle                       : RSY-HEVC ENCODER\nDefault                     : Yes\nForced                      : No\n\n\n[/color]\n\n[color=red][b]Screenshot:[/b][/color]\n\n[img]http://s11.postimg.org/ilxuxwd9v/HEVC.jpg[/img]\n\n[img]http://i.imgur.com/aucTUkL.jpg[/img]\n\n[img]http://i.imgur.com/8kFnAgu.jpg[/img]\n\n[img]http://i.imgur.com/4jHP4jp.jpg[/img]\n\n[img]http://i.imgur.com/wn68TMg.jpg[/img]\n\n[img]http://i.imgur.com/nEYY2eR.jpg[/img]\n\n[img]http://i.imgur.com/DZqoPtk.jpg[/img]\n\n[img]http://i.imgur.com/A5sxGke.jpg[/img]\n\n[img]http://i.imgur.com/if2dDxO.jpg[/img]\n\n[img]http://i.imgur.com/z04IEPX.jpg[/img]\n\n[img]http://i.imgur.com/TaJ0djZ.jpg[/img]\n\n[img]http://i.imgur.com/KqBn9oF.jpg[/img]\n\n\n[img]http://s25.postimg.org/gk60mev33/Rsy_Encode_copy.jpg[/img]\n\n[b]I am on FaceBook, Post Your suggestion, and find upcoming Releases at FB Page so keep in touch !!![/b]\n\n\n[color=red][b]Note : Please try to seed as much as you can since &quot;sharing brings joy&quot; ! [/b][/color]","torrent":{"xt":"urn:btih:dbe2b49a151f14713e1e5042c1a38bb9211f474b","amp;dn":"Sarfarosh+1999+++Hindi+BluRay+1080p+HEVC+x265+AC-3+5.1+Team+Tell","amp;tr":["udp%3A%2F%2Ftracker.openbittorrent.com%3A80","udp%3A%2F%2Fopen.demonii.com%3A1337","udp%3A%2F%2Ftracker.coppersurfer.tk%3A6969","udp%3A%2F%2Fexodus.desync.com%3A6969"],"infoHash":"dbe2b49a151f14713e1e5042c1a38bb9211f474b","infoHashBuffer":{"type":"Buffer","data":[219,226,180,154,21,31,20,113,62,30,80,66,193,163,139,185,33,31,71,75]},"announce":[],"urlList":[]}}